<svg width="2251" height="2129" viewBox="0 0 2251 2129" fill="none" xmlns="http://www.w3.org/2000/svg">
<path opacity="0.97" fill-rule="evenodd" clip-rule="evenodd" d="M2243.18 0.00838232C2246.1 -0.132072 2248.85 1.50657 2249.7 3.87089C2250.49 6.11816 2249.97 23.2536 2248.53 41.9107C2247.09 60.5677 2244.44 90.0866 2242.64 107.456C2240.87 124.826 2239.36 146.971 2239.32 156.615C2239.29 166.26 2238.33 182.599 2237.18 192.899C2236.06 203.199 2234.01 224.782 2232.69 240.888C2231.34 256.97 2227.72 298.076 2224.62 332.183C2221.54 366.29 2218.93 401.591 2218.84 410.604C2218.75 419.616 2218.01 431.649 2217.18 437.337C2216.33 443.025 2214.64 448.082 2213.4 448.597C2212.17 449.088 2197.49 438.952 2180.82 426.077C2164.14 413.202 2147.15 400.234 2143.09 397.284C2139.02 394.311 2131.44 388.459 2126.23 384.292C2121.02 380.125 2114.5 376.707 2111.71 376.684C2107.87 376.661 2101.4 383.824 2084.72 406.507C2072.65 422.917 2055.51 446.888 2046.61 459.763C2037.69 472.638 2011.68 508.969 1988.81 540.524C1965.93 572.08 1940.38 607.24 1931.99 618.687C1923.61 630.134 1903.61 657.617 1887.54 679.738C1871.47 701.836 1855.07 724.075 1851.07 729.131C1847.07 734.188 1831.97 755.186 1817.49 775.786C1803.02 796.386 1783 823.774 1773 836.649C1762.99 849.524 1751.83 864.272 1748.16 869.422C1744.5 874.572 1738.12 884.053 1733.94 890.49C1729.78 896.928 1718.65 912.588 1709.19 925.299C1699.75 937.987 1678.88 966.078 1662.81 987.685C1646.74 1009.29 1624 1039.89 1612.24 1055.66C1600.49 1071.44 1589.84 1085.51 1588.53 1086.92C1587.23 1088.32 1574.69 1104.22 1560.65 1122.24C1546.6 1140.27 1515.81 1175.07 1492.21 1199.56C1468.62 1224.07 1439.72 1251.6 1427.96 1260.73C1416.21 1269.86 1394.99 1285.19 1380.77 1294.79C1366.54 1304.39 1345.33 1317.61 1333.57 1324.19C1321.82 1330.74 1301.1 1341.28 1287.5 1347.58C1273.91 1353.85 1254.69 1361.76 1244.81 1365.11C1234.92 1368.48 1217.23 1373.91 1205.48 1377.17C1193.72 1380.42 1175.52 1385.19 1165.03 1387.77C1154.53 1390.34 1135.29 1394.6 1122.33 1397.23C1109.36 1399.85 1089.13 1403.06 1077.38 1404.34C1065.63 1405.63 1040.34 1407.78 1021.2 1409.12C1002.05 1410.48 984.34 1412.44 981.867 1413.5C977.53 1415.32 977.305 1418.51 975.53 1507.58C974.519 1558.3 973.732 1644.03 973.8 1698.1C973.867 1752.18 974.586 1821.7 975.395 1852.6C976.362 1889.75 976.002 1915.53 974.317 1928.68C972.923 1939.62 970.181 1954.9 968.249 1962.63C966.316 1970.35 960.967 1985.1 956.338 1995.4C951.731 2005.7 943.258 2020.96 937.528 2029.34C931.774 2037.72 919.684 2052.14 910.65 2061.44C901.615 2070.71 886.131 2083.39 876.243 2089.6C866.355 2095.8 848.668 2104.72 836.915 2109.4C825.161 2114.11 807.475 2119.7 797.586 2121.88C787.698 2124.03 762.573 2125.66 709.738 2128.02V2121.81C710.885 2100.52 716.75 2029.34 716.75 1880.68C716.75 1667.18 719.385 1601.68 716.75 1584.18C719.217 1567.02 716.75 1562.68 716.75 1530.73C716.053 1510.78 717.357 1472.84 716.75 1443.89C719.11 1415.61 720.188 1247.4 716.75 1077.36C716.75 906.455 713.828 766.539 714.435 765.252C715.042 763.964 721.627 762.911 729.043 762.911C736.459 762.911 749.359 764.526 757.696 766.516C766.034 768.482 779.945 772.298 788.597 774.966C797.249 777.635 812.419 784.119 822.307 789.386C832.195 794.653 849.387 806.007 860.512 814.621C871.636 823.212 886.805 836.439 894.222 844C901.638 851.537 913.728 866.683 921.1 877.615C928.471 888.571 939.685 908.585 946.045 922.092C952.383 935.6 959.664 954.046 962.203 963.058C964.72 972.071 968.473 987.357 970.496 997.002C972.541 1006.67 975.126 1027.74 976.272 1043.82C977.418 1059.93 978.384 1096 978.429 1124C978.474 1151.99 979.013 1176.48 979.62 1178.42C980.497 1181.16 984.609 1181.91 998.161 1181.82C1007.73 1181.75 1023.17 1180.76 1032.43 1179.66C1041.71 1178.54 1060.91 1175.94 1075.13 1173.88C1089.36 1171.82 1109.58 1167.93 1120.08 1165.24C1130.57 1162.57 1149.29 1157.14 1161.65 1153.19C1174.01 1149.25 1185.14 1145.32 1186.37 1144.48C1187.61 1143.64 1193.68 1141.04 1199.86 1138.67C1206.04 1136.33 1219.19 1130.22 1229.07 1125.07C1238.96 1119.92 1257.68 1108.99 1270.65 1100.77C1283.62 1092.58 1299.3 1082.05 1305.48 1077.36C1311.66 1072.68 1324.81 1062.34 1334.7 1054.33C1344.59 1046.35 1365.71 1026.75 1381.65 1010.79C1399.8 992.624 1423.72 964.814 1445.69 936.302C1464.98 911.301 1482.8 887.962 1485.27 884.427C1487.74 880.916 1497.88 867.666 1507.81 855.002C1517.72 842.338 1534.6 819.842 1545.32 805.047C1556.02 790.252 1573.34 766.539 1583.84 752.377C1594.31 738.214 1608.78 717.965 1616 707.384C1623.21 696.827 1648.2 660.472 1671.57 626.623C1694.92 592.797 1719.58 556.677 1726.36 546.377C1733.13 536.077 1756.75 501.314 1778.86 469.127C1800.95 436.939 1823.31 404.588 1828.57 397.261C1833.81 389.91 1846.71 370.996 1857.2 355.241C1867.7 339.464 1883.92 315.961 1893.25 303.039C1902.58 290.094 1916.98 269.236 1925.27 256.689C1933.57 244.142 1940.38 232.016 1940.42 229.769C1940.44 227.521 1933.1 218.298 1924.08 209.286C1915.05 200.273 1897.07 183.231 1884.13 171.41C1871.18 159.588 1856.53 145.683 1851.58 140.486C1846.51 135.149 1843.18 129.742 1843.94 128.033C1844.69 126.371 1849.22 124.123 1854.06 123.023C1858.87 121.946 1870.42 118.575 1879.68 115.579C1888.96 112.559 1911.18 105.349 1929.12 99.5672C1947.05 93.7618 1967.77 87.2775 1975.19 85.1238C1982.6 82.9936 2006.38 75.4793 2028 68.4332C2049.64 61.387 2068.83 55.0666 2070.7 54.3877C2072.56 53.7088 2088.72 48.6057 2106.66 43.0577C2124.59 37.4863 2161.49 25.5711 2188.68 16.582C2215.88 7.59293 2240.4 0.125428 2243.18 0.00838232ZM1551.57 102.868C1558.35 102.798 1569.99 103.898 1577.41 105.279C1584.83 106.684 1598.49 110.499 1607.75 113.8C1617.03 117.077 1628.15 121.595 1632.47 123.842C1636.78 126.066 1645.14 132.27 1651.01 137.584C1656.88 142.897 1662.7 147.252 1663.93 147.252C1665.17 147.252 1672.63 153.83 1680.5 161.882C1688.38 169.935 1697.66 181.265 1701.15 187.047C1704.63 192.852 1710.47 203.902 1714.12 211.627C1717.76 219.352 1722.61 234.099 1724.88 244.399C1727.13 254.699 1728.99 270.5 1729.02 279.513C1729.02 288.525 1727.58 304.327 1725.8 314.627C1724.03 324.927 1720.25 339.159 1717.42 346.229C1714.56 353.322 1708.07 366.478 1702.99 375.49C1697.37 385.462 1687.53 397.822 1677.87 407.092C1669.15 415.45 1654.85 426.78 1646.11 432.257C1637.37 437.735 1622.9 444.781 1613.93 447.918C1604.96 451.078 1588.53 454.589 1577.41 455.76C1565.66 457.001 1550.13 457.024 1540.33 455.83C1531.07 454.707 1516.91 451.57 1508.87 448.854C1500.82 446.115 1489.2 441.293 1483.02 438.086C1476.84 434.902 1465.72 427.833 1458.3 422.379C1450.89 416.924 1438.75 405.618 1431.33 397.261C1422.66 387.476 1414.05 374.179 1407.24 360.04C1401.4 347.938 1394.99 331.715 1392.97 323.99C1390.97 316.265 1388.77 299.411 1388.1 286.536C1387.33 272.162 1387.92 257.251 1389.6 247.911C1391.13 239.554 1395.33 225.063 1398.93 215.723C1402.55 206.383 1411.31 190.137 1418.41 179.603C1425.51 169.069 1437.58 154.579 1445.22 147.415C1453.13 139.971 1467.38 130.093 1478.37 124.428C1488.96 118.95 1506.98 111.904 1518.42 108.744C1529.86 105.583 1544.78 102.938 1551.57 102.868ZM1062.77 388.084L1095.36 394.007C1113.29 397.237 1138.06 402.668 1150.42 406.039C1162.78 409.41 1175.92 412.968 1179.63 413.951C1183.34 414.934 1200.04 420.506 1216.71 426.335C1233.39 432.164 1252.11 439.303 1258.29 442.183C1264.47 445.039 1278.63 451.851 1289.75 457.258C1300.88 462.689 1318.59 472.802 1329.08 479.731C1339.58 486.66 1356.27 498.599 1366.16 506.253C1376.05 513.908 1394.28 530.809 1406.66 543.825C1419.04 556.817 1436.41 577.979 1445.24 590.854C1454.08 603.729 1466.68 623.767 1473.29 635.401C1479.88 647.036 1489.16 665.997 1493.9 677.538C1498.66 689.078 1504.48 703.264 1506.84 709.07C1509.2 714.875 1513.23 726.978 1515.79 735.99C1518.37 745.003 1519.9 754.483 1519.2 757.058C1518.51 759.633 1510.6 771.83 1501.61 784.19C1492.62 796.526 1478.77 815.487 1470.84 826.326C1462.91 837.141 1446.14 860.222 1433.58 877.615C1421.02 895.008 1403.13 918.698 1393.8 930.286C1384.48 941.873 1366.34 961.888 1353.51 974.763C1340.65 987.638 1322.59 1004.59 1313.33 1012.4C1304.07 1020.25 1290.92 1030.57 1284.13 1035.32C1277.35 1040.1 1271.01 1043.96 1270.09 1043.91C1269.17 1043.87 1268.38 1041.97 1268.36 1039.72C1268.33 1037.48 1270.83 1027.74 1273.93 1018.07C1277.03 1008.43 1281.14 994.192 1283.08 986.467C1285.01 978.742 1288.04 962.145 1289.84 949.598C1291.64 937.051 1293.12 910.973 1293.12 891.661C1293.12 865.56 1291.93 850.39 1288.49 832.553C1285.95 819.35 1282.29 802.753 1280.34 795.683C1278.38 788.614 1273.08 774.381 1268.54 764.081C1264 753.781 1255.41 737.465 1249.46 727.797C1243.48 718.152 1229.39 700.689 1218.11 689.008C1206.83 677.327 1188.02 661.151 1176.26 653.028C1164.51 644.929 1148.35 634.886 1140.3 630.743C1132.26 626.6 1119.13 620.935 1111.09 618.172C1103.04 615.41 1089.92 611.126 1081.87 608.645C1073.83 606.163 1054.64 602.886 1039.17 601.365C1018 599.258 956.383 599.07 789.069 600.569C595.686 602.301 566.786 603.003 564.83 606.07C563.347 608.411 563.19 863.101 564.358 1364.76C565.909 2034.42 565.729 2120.38 562.74 2123.89C559.639 2127.54 548.987 2127.87 302.05 2127.66L300.544 2121.22C299.713 2117.69 299.645 1777.18 300.387 1364.52C301.106 951.869 300.926 612.156 299.96 609.581C298.252 604.946 296.544 604.899 151.254 605.765C28.8868 606.491 3.82911 606.093 1.62673 603.424C-0.283505 601.13 -0.48576 595.606 0.885112 583.831C1.94136 574.819 5.08761 559.017 7.8743 548.717C10.661 538.417 17.4255 521.024 22.8865 510.092C28.3475 499.137 37.6739 483.336 43.5844 474.979C49.4949 466.598 61.0237 453.185 69.204 445.132C77.3618 437.08 89.3625 426.99 95.8573 422.683C102.352 418.376 111.701 412.687 116.645 410.042C121.589 407.397 136.264 402.013 149.231 398.057C162.221 394.1 179.907 389.84 188.56 388.576C198.538 387.125 361.379 386.61 1062.77 388.084Z" fill="#4338CA"/>
</svg>
