<svg width="3492" height="559" viewBox="0 0 3492 559" fill="none" xmlns="http://www.w3.org/2000/svg">
<g filter="url(#filter0_i_17_8)">
<path d="M294.399 195.2C294.399 175.466 292.533 160 288.799 148.8C285.066 137.066 278.399 128.266 268.799 122.4C259.733 116.533 249.599 112.8 238.399 111.2C227.733 109.066 212.799 108 193.599 108V284C208.533 284 221.599 282.666 232.799 280C244.533 277.333 255.199 272.8 264.799 266.4C274.399 260 281.599 250.933 286.399 239.2C291.733 226.933 294.399 212.266 294.399 195.2ZM193.599 433.6C193.599 476.8 185.599 507.733 169.599 526.4C153.599 544.533 129.066 553.6 95.9992 553.6C62.9326 553.6 38.6659 545.333 23.1992 528.8C7.73256 511.733 -0.000777721 481.866 -0.000777721 439.2V101.6C-0.000777721 69.0663 8.79922 45.0662 26.3992 29.5996C43.9992 13.5996 67.1992 5.59956 95.9992 5.59956H238.399C273.066 5.59956 305.066 10.3996 334.399 19.9996C363.733 29.0662 389.066 42.1329 410.399 59.1996C432.266 75.7329 449.066 96.7996 460.799 122.4C473.066 147.466 479.199 175.466 479.199 206.4C479.199 244.266 468.266 277.333 446.399 305.6C424.533 333.333 395.733 354.133 359.999 368C324.266 381.866 283.999 388.8 239.199 388.8H193.599V433.6ZM720.155 468C720.155 500 713.489 522.4 700.155 535.2C686.822 547.466 663.089 553.6 628.955 553.6C597.489 553.6 576.155 546.4 564.955 532C553.755 517.066 548.155 492.8 548.155 459.2V262.4C548.155 244.266 551.355 228.533 557.755 215.2C564.155 201.333 573.489 190.666 585.755 183.2C598.022 175.733 612.422 172 628.955 172C669.489 172 696.155 183.733 708.955 207.2C739.889 183.733 769.755 172 798.555 172C854.555 172 882.555 198.666 882.555 252C882.555 273.333 876.422 290.666 864.155 304C851.889 317.333 835.889 324 816.155 324C804.422 324 794.822 321.6 787.355 316.8C780.422 312 773.755 307.2 767.355 302.4C761.489 297.6 754.555 295.2 746.555 295.2C734.822 295.2 726.022 299.2 720.155 307.2V468ZM923.099 60.7996C923.099 43.1996 930.566 28.7996 945.499 17.5996C960.966 5.86625 982.566 -0.000415802 1010.3 -0.000415802C1068.43 -0.000415802 1097.5 20.2662 1097.5 60.7996C1097.5 83.1996 1090.03 98.9329 1075.1 108C1060.7 117.066 1039.1 121.6 1010.3 121.6C985.233 121.6 964.433 116.8 947.899 107.2C931.366 97.5996 923.099 82.1329 923.099 60.7996ZM1096.7 468C1096.7 500 1090.03 522.4 1076.7 535.2C1063.37 547.466 1039.9 553.6 1006.3 553.6C974.833 553.6 953.233 546.4 941.499 532C930.299 517.066 924.699 492.8 924.699 459.2V262.4C924.699 235.2 931.899 213.333 946.299 196.8C961.233 180.266 980.966 172 1005.5 172C1034.3 172 1056.7 178.4 1072.7 191.2C1088.7 203.466 1096.7 226.4 1096.7 260V468ZM1643.65 342.4C1643.65 312.533 1631.65 297.6 1607.65 297.6C1596.98 297.6 1588.98 303.733 1583.65 316C1578.32 328.266 1575.65 343.733 1575.65 362.4C1575.65 390.666 1575.12 414.133 1574.05 432.8C1573.52 451.466 1571.92 468.266 1569.25 483.2C1566.58 498.133 1563.38 509.866 1559.65 518.4C1555.92 526.933 1550.85 534.133 1544.45 540C1538.05 545.333 1530.85 549.066 1522.85 551.2C1514.85 552.8 1504.72 553.6 1492.45 553.6C1473.78 553.6 1458.58 550.933 1446.85 545.6C1435.65 540.266 1427.65 532.8 1422.85 523.2C1418.05 513.6 1415.65 501.6 1415.65 487.2V342.4C1415.65 312.533 1403.65 297.6 1379.65 297.6C1370.05 297.6 1362.05 303.2 1355.65 314.4C1349.78 325.066 1346.85 339.2 1346.85 356.8V468C1346.85 500 1340.18 522.4 1326.85 535.2C1313.52 547.466 1290.05 553.6 1256.45 553.6C1224.98 553.6 1203.38 546.4 1191.65 532C1180.45 517.066 1174.85 492.8 1174.85 459.2V262.4C1174.85 235.2 1182.05 213.333 1196.45 196.8C1211.38 180.266 1231.12 172 1255.65 172C1299.38 172 1327.12 186.133 1338.85 214.4C1359.12 199.466 1378.85 189.066 1398.05 183.2C1417.78 177.333 1440.72 174.4 1466.85 174.4C1506.32 174.4 1534.85 191.466 1552.45 225.6C1555.12 223.466 1557.78 221.333 1560.45 219.2C1601.52 189.333 1651.92 174.4 1711.65 174.4C1749.52 174.4 1776.72 188.8 1793.25 217.6C1809.78 246.4 1818.05 294.666 1818.05 362.4C1818.05 390.666 1817.52 414.133 1816.45 432.8C1815.92 451.466 1814.32 468.266 1811.65 483.2C1808.98 498.133 1805.52 509.866 1801.25 518.4C1797.52 526.933 1791.92 534.133 1784.45 540C1777.52 545.333 1769.52 549.066 1760.45 551.2C1751.92 552.8 1740.98 553.6 1727.65 553.6C1707.38 553.6 1690.85 550.933 1678.05 545.6C1665.78 540.266 1656.98 532.8 1651.65 523.2C1646.32 513.6 1643.65 501.6 1643.65 487.2V342.4ZM2113.47 558.4C2048.4 558.4 1994.53 541.6 1951.87 508C1909.73 474.4 1888.67 428.533 1888.67 370.4C1888.67 307.466 1909.47 257.866 1951.07 221.6C1993.2 184.8 2047.33 166.4 2113.47 166.4C2175.87 166.4 2221.47 177.6 2250.27 200C2279.6 221.866 2294.27 252 2294.27 290.4C2294.27 297.866 2293.2 305.066 2291.07 312C2289.47 318.933 2286.53 325.866 2282.27 332.8C2278.53 339.2 2273.2 345.333 2266.27 351.2C2259.87 356.533 2252.4 361.6 2243.87 366.4C2235.33 370.666 2225.2 374.133 2213.47 376.8C2201.73 378.933 2189.2 380 2175.87 380L2063.07 380.8C2068.4 397.866 2078 411.466 2091.87 421.6C2105.73 431.2 2123.33 436 2144.67 436C2167.6 436 2191.07 433.066 2215.07 427.2C2225.2 424.533 2236.13 420.266 2247.87 414.4C2260.13 408.533 2268.93 405.6 2274.27 405.6C2283.33 405.6 2290.27 408.266 2295.07 413.6C2300.4 418.933 2303.07 425.6 2303.07 433.6C2303.07 443.2 2298.8 454.933 2290.27 468.8C2281.73 482.133 2269.73 495.733 2254.27 509.6C2239.33 522.933 2219.33 534.4 2194.27 544C2169.2 553.6 2142.27 558.4 2113.47 558.4ZM2059.07 329.6C2095.87 329.066 2115.87 328.8 2119.07 328.8C2127.07 328.8 2132.93 324 2136.67 314.4C2139.33 307.466 2140.67 297.866 2140.67 285.6C2140.67 252 2130.53 235.2 2110.27 235.2C2102.8 235.2 2095.33 239.2 2087.87 247.2C2080.93 255.2 2074.8 266.666 2069.47 281.6C2064.13 296 2060.67 312 2059.07 329.6ZM2910.85 433.6C2910.85 476.8 2903.12 507.733 2887.65 526.4C2872.18 544.533 2848.72 553.6 2817.25 553.6C2786.32 553.6 2763.65 545.333 2749.25 528.8C2734.85 511.733 2727.65 481.866 2727.65 439.2L2726.85 348.8H2563.65V433.6C2563.65 477.333 2556.18 508.266 2541.25 526.4C2526.32 544.533 2502.58 553.6 2470.05 553.6C2439.12 553.6 2416.45 545.333 2402.05 528.8C2387.65 511.733 2380.45 481.866 2380.45 439.2L2378.05 101.6C2378.05 68.5329 2386.32 44.2663 2402.85 28.7996C2419.92 13.3329 2442.32 5.59956 2470.05 5.59956C2502.05 5.59956 2525.52 11.4662 2540.45 23.1996C2555.92 34.9329 2563.65 58.6663 2563.65 94.3996V228.8H2726.05V101.6C2726.05 79.1996 2730.05 60.7996 2738.05 46.3996C2746.58 31.4662 2757.25 21.0662 2770.05 15.1996C2783.38 8.79957 2799.12 5.59956 2817.25 5.59956C2848.18 5.59956 2871.38 11.4662 2886.85 23.1996C2902.85 34.9329 2910.85 58.6663 2910.85 94.3996V433.6ZM3311.87 164.8C3311.87 139.2 3302.53 121.6 3283.87 112C3265.2 102.4 3233.73 97.5996 3189.47 97.5996V236C3231.07 236 3261.73 230.933 3281.47 220.8C3301.73 210.133 3311.87 191.466 3311.87 164.8ZM3189.47 433.6C3189.47 513.6 3158.27 553.6 3095.87 553.6C3064.4 553.6 3041.2 545.333 3026.27 528.8C3011.87 511.733 3004.67 481.866 3004.67 439.2V101.6C3004.67 70.6663 3012.93 47.1996 3029.47 31.1996C3046.53 14.6663 3068.67 6.3996 3095.87 6.3996H3263.87C3329.47 6.3996 3382.53 21.8663 3423.07 52.7996C3463.6 83.1996 3483.87 122.4 3483.87 170.4C3483.87 206.666 3476.13 235.2 3460.67 256C3445.73 276.266 3421.47 291.2 3387.87 300.8C3413.47 302.4 3437.2 314.933 3459.07 338.4C3480.93 361.333 3491.87 390.133 3491.87 424.8C3491.87 460 3488.4 487.2 3481.47 506.4C3475.07 525.066 3465.73 537.6 3453.47 544C3441.2 550.4 3423.87 553.6 3401.47 553.6C3370 553.6 3346.8 547.2 3331.87 534.4C3317.47 521.066 3310.27 501.066 3310.27 474.4C3310.27 441.333 3307.07 416 3300.67 398.4C3294.27 380.266 3286 368.533 3275.87 363.2C3265.73 357.866 3251.6 355.2 3233.47 355.2L3189.47 356V433.6Z" fill="#4338CA"/>
</g>
<defs>
<filter id="filter0_i_17_8" x="-3" y="0" width="3494.87" height="562.399" filterUnits="userSpaceOnUse" color-interpolation-filters="sRGB">
<feFlood flood-opacity="0" result="BackgroundImageFix"/>
<feBlend mode="normal" in="SourceGraphic" in2="BackgroundImageFix" result="shape"/>
<feColorMatrix in="SourceAlpha" type="matrix" values="0 0 0 0 0 0 0 0 0 0 0 0 0 0 0 0 0 0 127 0" result="hardAlpha"/>
<feOffset dx="-3" dy="6"/>
<feGaussianBlur stdDeviation="2"/>
<feComposite in2="hardAlpha" operator="arithmetic" k2="-1" k3="1"/>
<feColorMatrix type="matrix" values="0 0 0 0 0.538462 0 0 0 0 0.204512 0 0 0 0 0.204512 0 0 0 0.71 0"/>
<feBlend mode="normal" in2="shape" result="effect1_innerShadow_17_8"/>
</filter>
</defs>
</svg>
